<?xml version="1.0" encoding="iso-8859-1"?>
<!-- Uploaded to: SVG Repo, www.svgrepo.com, Generator: SVG Repo Mixer Tools -->
<!DOCTYPE svg PUBLIC "-//W3C//DTD SVG 1.1//EN" "http://www.w3.org/Graphics/SVG/1.1/DTD/svg11.dtd">
<svg fill="#0f1219" height="800px" width="800px" version="1.1" id="Capa_1" xmlns="http://www.w3.org/2000/svg" xmlns:xlink="http://www.w3.org/1999/xlink" 
	 viewBox="0 0 317.752 317.752" xml:space="preserve">
<g>
	<path d="M178.876,138.876V90.287c0-11.046-8.954-20-20-20s-20,8.954-20,20v48.589H90.287c-11.046,0-20,8.954-20,20s8.954,20,20,20
		h48.589v48.59c0,11.046,8.954,20,20,20s20-8.954,20-20v-48.59h48.59c11.046,0,20-8.954,20-20s-8.954-20-20-20H178.876z"/>
	<path d="M286.527,0H31.225C18.685,0,8.519,10.166,8.519,22.707v272.339c0,12.54,10.166,22.707,22.707,22.707h255.301
		c12.54,0,22.707-10.166,22.707-22.707V22.707C309.233,10.166,299.067,0,286.527,0z M158.876,274.646
		c-63.985,0-115.77-51.778-115.77-115.77c0-63.985,51.778-115.77,115.77-115.77c63.986,0,115.77,51.779,115.77,115.77
		C274.646,222.862,222.867,274.646,158.876,274.646z"/>
</g>
</svg>